<?xml version="1.0" encoding="utf-8"?>
<!-- Generator: Adobe Illustrator 20.1.0, SVG Export Plug-In . SVG Version: 6.00 Build 0)  -->
<svg version="1.1" id="Layer_1" xmlns="http://www.w3.org/2000/svg" xmlns:xlink="http://www.w3.org/1999/xlink" x="0px" y="0px"
	 viewBox="0 0 1920 1080" style="enable-background:new 0 0 1920 1080;" xml:space="preserve">
<style type="text/css">
	.st0{opacity:0.25;fill:#CCCCCC;}
	.st1{opacity:0.25;fill:#DBDBDB;}
	.st2{opacity:0.25;fill:#E8E8E8;}
	.st3{opacity:0.25;fill:#F2F2F2;}
	.st4{opacity:0.25;fill:#F9F9F9;}
</style>
<polygon class="st0" points="0,64.8 0,21.6 25.8,43.2 "/>
<polygon class="st0" points="0,108 0,64.8 25.8,86.4 "/>
<polygon class="st0" points="25.8,86.4 25.8,43.2 51.6,64.8 "/>
<polygon class="st0" points="25.8,43.2 25.8,0 51.6,21.6 "/>
<polygon class="st0" points="0,151.2 0,108 25.8,129.6 "/>
<polygon class="st0" points="0,194.4 0,151.2 25.8,172.8 "/>
<polygon class="st0" points="25.8,172.8 25.8,129.6 51.6,151.2 "/>
<polygon class="st0" points="25.8,216 25.8,172.8 51.6,194.4 "/>
<polygon class="st0" points="0,237.6 0,194.4 25.8,216 "/>
<polygon class="st0" points="25.8,259.2 25.8,216 51.6,237.6 "/>
<polygon class="st0" points="25.8,302.4 25.8,259.2 51.6,280.8 "/>
<polygon class="st0" points="0,324 0,280.8 25.8,302.4 "/>
<polygon class="st0" points="25.8,388.8 25.8,345.6 51.6,367.2 "/>
<polygon class="st0" points="0,410.4 0,367.2 25.8,388.8 "/>
<polygon class="st0" points="0,453.6 0,410.4 25.8,432 "/>
<polygon class="st0" points="0,496.8 0,453.6 25.8,475.2 "/>
<polygon class="st0" points="0,540 0,496.8 25.8,518.4 "/>
<polygon class="st0" points="25.8,518.4 25.8,475.2 51.6,496.8 "/>
<polygon class="st0" points="25.8,561.6 25.8,518.4 51.6,540 "/>
<polygon class="st0" points="0,583.2 0,540 25.8,561.6 "/>
<polygon class="st0" points="0,626.4 0,583.2 25.8,604.8 "/>
<polygon class="st0" points="25.8,604.8 25.8,561.6 51.6,583.2 "/>
<polygon class="st0" points="25.8,648 25.8,604.8 51.6,626.4 "/>
<polygon class="st0" points="0,669.6 0,626.4 25.8,648 "/>
<polygon class="st0" points="25.8,691.2 25.8,648 51.6,669.6 "/>
<polygon class="st0" points="25.8,734.4 25.8,691.2 51.6,712.8 "/>
<polygon class="st0" points="0,756 0,712.8 25.8,734.4 "/>
<polygon class="st0" points="0,799.2 0,756 25.8,777.6 "/>
<polygon class="st0" points="25.8,820.8 25.8,777.6 51.6,799.2 "/>
<polygon class="st0" points="0,885.6 0,842.4 25.8,864 "/>
<polygon class="st0" points="25.8,907.2 25.8,864 51.6,885.6 "/>
<polygon class="st0" points="0,928.8 0,885.6 25.8,907.2 "/>
<polygon class="st0" points="25.8,950.4 25.8,907.2 51.6,928.8 "/>
<polygon class="st0" points="0,1015.2 0,972 25.8,993.6 "/>
<polygon class="st0" points="0,1058.4 0,1015.2 25.8,1036.8 "/>
<polygon class="st0" points="25.8,993.6 25.8,950.4 51.6,972 "/>
<polygon class="st0" points="25.8,1080 25.8,1036.8 51.6,1058.4 "/>
<polygon class="st0" points="51.6,64.8 51.6,21.6 77.5,43.2 "/>
<polygon class="st0" points="77.5,86.4 77.5,43.2 103.3,64.8 "/>
<polygon class="st0" points="77.5,43.2 77.5,0 103.3,21.6 "/>
<polygon class="st0" points="77.5,129.6 77.5,86.4 103.3,108 "/>
<polygon class="st0" points="51.6,151.2 51.6,108 77.5,129.6 "/>
<polygon class="st0" points="51.6,194.4 51.6,151.2 77.5,172.8 "/>
<polygon class="st0" points="77.5,172.8 77.5,129.6 103.3,151.2 "/>
<polygon class="st0" points="77.5,216 77.5,172.8 103.3,194.4 "/>
<polygon class="st0" points="51.6,237.6 51.6,194.4 77.5,216 "/>
<polygon class="st0" points="77.5,259.2 77.5,216 103.3,237.6 "/>
<polygon class="st0" points="77.5,302.4 77.5,259.2 103.3,280.8 "/>
<polygon class="st0" points="51.6,324 51.6,280.8 77.5,302.4 "/>
<polygon class="st0" points="51.6,367.2 51.6,324 77.5,345.6 "/>
<polygon class="st0" points="77.5,345.6 77.5,302.4 103.3,324 "/>
<polygon class="st0" points="51.6,410.4 51.6,367.2 77.5,388.8 "/>
<polygon class="st0" points="51.6,453.6 51.6,410.4 77.5,432 "/>
<polygon class="st0" points="77.5,432 77.5,388.8 103.3,410.4 "/>
<polygon class="st0" points="51.6,496.8 51.6,453.6 77.5,475.2 "/>
<polygon class="st0" points="51.6,540 51.6,496.8 77.5,518.4 "/>
<polygon class="st0" points="77.5,518.4 77.5,475.2 103.3,496.8 "/>
<polygon class="st0" points="77.5,561.6 77.5,518.4 103.3,540 "/>
<polygon class="st0" points="51.6,583.2 51.6,540 77.5,561.6 "/>
<polygon class="st0" points="51.6,626.4 51.6,583.2 77.5,604.8 "/>
<polygon class="st0" points="77.5,648 77.5,604.8 103.3,626.4 "/>
<polygon class="st0" points="77.5,734.4 77.5,691.2 103.3,712.8 "/>
<polygon class="st0" points="51.6,756 51.6,712.8 77.5,734.4 "/>
<polygon class="st0" points="51.6,799.2 51.6,756 77.5,777.6 "/>
<polygon class="st0" points="77.5,777.6 77.5,734.4 103.3,756 "/>
<polygon class="st0" points="77.5,820.8 77.5,777.6 103.3,799.2 "/>
<polygon class="st0" points="51.6,842.4 51.6,799.2 77.5,820.8 "/>
<polygon class="st0" points="51.6,885.6 51.6,842.4 77.5,864 "/>
<polygon class="st0" points="77.5,864 77.5,820.8 103.3,842.4 "/>
<polygon class="st0" points="77.5,907.2 77.5,864 103.3,885.6 "/>
<polygon class="st0" points="51.6,928.8 51.6,885.6 77.5,907.2 "/>
<polygon class="st0" points="77.5,950.4 77.5,907.2 103.3,928.8 "/>
<polygon class="st0" points="51.6,972 51.6,928.8 77.5,950.4 "/>
<polygon class="st0" points="51.6,1015.2 51.6,972 77.5,993.6 "/>
<polygon class="st0" points="51.6,1058.4 51.6,1015.2 77.5,1036.8 "/>
<polygon class="st0" points="77.5,1036.8 77.5,993.6 103.3,1015.2 "/>
<polygon class="st0" points="77.5,1080 77.5,1036.8 103.3,1058.4 "/>
<polygon class="st0" points="103.3,64.8 103.3,21.6 129.1,43.2 "/>
<polygon class="st0" points="103.3,108 103.3,64.8 129.1,86.4 "/>
<polygon class="st0" points="129.1,86.4 129.1,43.2 154.9,64.8 "/>
<polygon class="st0" points="129.1,43.2 129.1,0 154.9,21.6 "/>
<polygon class="st0" points="103.3,151.2 103.3,108 129.1,129.6 "/>
<polygon class="st0" points="129.1,172.8 129.1,129.6 154.9,151.2 "/>
<polygon class="st0" points="129.1,216 129.1,172.8 154.9,194.4 "/>
<polygon class="st0" points="103.3,237.6 103.3,194.4 129.1,216 "/>
<polygon class="st0" points="103.3,280.8 103.3,237.6 129.1,259.2 "/>
<polygon class="st0" points="129.1,259.2 129.1,216 154.9,237.6 "/>
<polygon class="st0" points="129.1,302.4 129.1,259.2 154.9,280.8 "/>
<polygon class="st0" points="103.3,367.2 103.3,324 129.1,345.6 "/>
<polygon class="st0" points="129.1,388.8 129.1,345.6 154.9,367.2 "/>
<polygon class="st0" points="103.3,410.4 103.3,367.2 129.1,388.8 "/>
<polygon class="st0" points="103.3,453.6 103.3,410.4 129.1,432 "/>
<polygon class="st0" points="129.1,432 129.1,388.8 154.9,410.4 "/>
<polygon class="st0" points="129.1,475.2 129.1,432 154.9,453.6 "/>
<polygon class="st0" points="103.3,540 103.3,496.8 129.1,518.4 "/>
<polygon class="st0" points="129.1,518.4 129.1,475.2 154.9,496.8 "/>
<polygon class="st0" points="129.1,561.6 129.1,518.4 154.9,540 "/>
<polygon class="st0" points="129.1,648 129.1,604.8 154.9,626.4 "/>
<polygon class="st0" points="103.3,669.6 103.3,626.4 129.1,648 "/>
<polygon class="st0" points="103.3,712.8 103.3,669.6 129.1,691.2 "/>
<polygon class="st0" points="129.1,691.2 129.1,648 154.9,669.6 "/>
<polygon class="st0" points="129.1,734.4 129.1,691.2 154.9,712.8 "/>
<polygon class="st0" points="103.3,756 103.3,712.8 129.1,734.4 "/>
<polygon class="st0" points="103.3,799.2 103.3,756 129.1,777.6 "/>
<polygon class="st0" points="129.1,777.6 129.1,734.4 154.9,756 "/>
<polygon class="st0" points="103.3,842.4 103.3,799.2 129.1,820.8 "/>
<polygon class="st0" points="103.3,885.6 103.3,842.4 129.1,864 "/>
<polygon class="st0" points="129.1,864 129.1,820.8 154.9,842.4 "/>
<polygon class="st0" points="129.1,907.2 129.1,864 154.9,885.6 "/>
<polygon class="st0" points="129.1,950.4 129.1,907.2 154.9,928.8 "/>
<polygon class="st0" points="103.3,1015.2 103.3,972 129.1,993.6 "/>
<polygon class="st0" points="103.3,1058.4 103.3,1015.2 129.1,1036.8 "/>
<polygon class="st0" points="129.1,1036.8 129.1,993.6 154.9,1015.2 "/>
<polygon class="st0" points="129.1,1080 129.1,1036.8 154.9,1058.4 "/>
<polygon class="st1" points="180.8,86.4 180.8,43.2 206.6,64.8 "/>
<polygon class="st1" points="180.8,43.2 180.8,0 206.6,21.6 "/>
<polygon class="st1" points="180.8,129.6 180.8,86.4 206.6,108 "/>
<polygon class="st1" points="154.9,151.2 154.9,108 180.8,129.6 "/>
<polygon class="st1" points="154.9,194.4 154.9,151.2 180.8,172.8 "/>
<polygon class="st1" points="180.8,172.8 180.8,129.6 206.6,151.2 "/>
<polygon class="st1" points="154.9,280.8 154.9,237.6 180.8,259.2 "/>
<polygon class="st1" points="180.8,259.2 180.8,216 206.6,237.6 "/>
<polygon class="st1" points="154.9,367.2 154.9,324 180.8,345.6 "/>
<polygon class="st1" points="180.8,345.6 180.8,302.4 206.6,324 "/>
<polygon class="st1" points="154.9,453.6 154.9,410.4 180.8,432 "/>
<polygon class="st1" points="180.8,432 180.8,388.8 206.6,410.4 "/>
<polygon class="st1" points="180.8,475.2 180.8,432 206.6,453.6 "/>
<polygon class="st1" points="154.9,496.8 154.9,453.6 180.8,475.2 "/>
<polygon class="st1" points="180.8,518.4 180.8,475.2 206.6,496.8 "/>
<polygon class="st1" points="154.9,583.2 154.9,540 180.8,561.6 "/>
<polygon class="st1" points="180.8,604.8 180.8,561.6 206.6,583.2 "/>
<polygon class="st1" points="180.8,648 180.8,604.8 206.6,626.4 "/>
<polygon class="st1" points="180.8,734.4 180.8,691.2 206.6,712.8 "/>
<polygon class="st1" points="154.9,756 154.9,712.8 180.8,734.4 "/>
<polygon class="st1" points="154.9,799.2 154.9,756 180.8,777.6 "/>
<polygon class="st1" points="180.8,820.8 180.8,777.6 206.6,799.2 "/>
<polygon class="st1" points="154.9,885.6 154.9,842.4 180.8,864 "/>
<polygon class="st1" points="180.8,864 180.8,820.8 206.6,842.4 "/>
<polygon class="st1" points="154.9,928.8 154.9,885.6 180.8,907.2 "/>
<polygon class="st1" points="180.8,950.4 180.8,907.2 206.6,928.8 "/>
<polygon class="st1" points="154.9,972 154.9,928.8 180.8,950.4 "/>
<polygon class="st1" points="154.9,1015.2 154.9,972 180.8,993.6 "/>
<polygon class="st1" points="180.8,1036.8 180.8,993.6 206.6,1015.2 "/>
<polygon class="st1" points="180.8,1080 180.8,1036.8 206.6,1058.4 "/>
<polygon class="st1" points="206.6,64.8 206.6,21.6 232.4,43.2 "/>
<polygon class="st1" points="206.6,108 206.6,64.8 232.4,86.4 "/>
<polygon class="st1" points="232.4,86.4 232.4,43.2 258.2,64.8 "/>
<polygon class="st1" points="232.4,43.2 232.4,0 258.2,21.6 "/>
<polygon class="st1" points="232.4,129.6 232.4,86.4 258.2,108 "/>
<polygon class="st1" points="232.4,172.8 232.4,129.6 258.2,151.2 "/>
<polygon class="st1" points="232.4,216 232.4,172.8 258.2,194.4 "/>
<polygon class="st1" points="206.6,237.6 206.6,194.4 232.4,216 "/>
<polygon class="st1" points="232.4,302.4 232.4,259.2 258.2,280.8 "/>
<polygon class="st1" points="206.6,324 206.6,280.8 232.4,302.4 "/>
<polygon class="st1" points="206.6,367.2 206.6,324 232.4,345.6 "/>
<polygon class="st1" points="232.4,388.8 232.4,345.6 258.2,367.2 "/>
<polygon class="st1" points="206.6,410.4 206.6,367.2 232.4,388.8 "/>
<polygon class="st1" points="206.6,453.6 206.6,410.4 232.4,432 "/>
<polygon class="st1" points="206.6,496.8 206.6,453.6 232.4,475.2 "/>
<polygon class="st1" points="206.6,583.2 206.6,540 232.4,561.6 "/>
<polygon class="st1" points="232.4,604.8 232.4,561.6 258.2,583.2 "/>
<polygon class="st1" points="232.4,648 232.4,604.8 258.2,626.4 "/>
<polygon class="st1" points="206.6,669.6 206.6,626.4 232.4,648 "/>
<polygon class="st1" points="206.6,712.8 206.6,669.6 232.4,691.2 "/>
<polygon class="st1" points="232.4,691.2 232.4,648 258.2,669.6 "/>
<polygon class="st1" points="232.4,734.4 232.4,691.2 258.2,712.8 "/>
<polygon class="st1" points="206.6,799.2 206.6,756 232.4,777.6 "/>
<polygon class="st1" points="232.4,777.6 232.4,734.4 258.2,756 "/>
<polygon class="st1" points="232.4,820.8 232.4,777.6 258.2,799.2 "/>
<polygon class="st1" points="206.6,885.6 206.6,842.4 232.4,864 "/>
<polygon class="st1" points="232.4,864 232.4,820.8 258.2,842.4 "/>
<polygon class="st1" points="232.4,907.2 232.4,864 258.2,885.6 "/>
<polygon class="st1" points="232.4,950.4 232.4,907.2 258.2,928.8 "/>
<polygon class="st1" points="206.6,972 206.6,928.8 232.4,950.4 "/>
<polygon class="st1" points="206.6,1015.2 206.6,972 232.4,993.6 "/>
<polygon class="st1" points="232.4,993.6 232.4,950.4 258.2,972 "/>
<polygon class="st1" points="232.4,1036.8 232.4,993.6 258.2,1015.2 "/>
<polygon class="st1" points="232.4,1080 232.4,1036.8 258.2,1058.4 "/>
<polygon class="st2" points="258.2,108 258.2,64.8 284,86.4 "/>
<polygon class="st2" points="284,86.4 284,43.2 309.9,64.8 "/>
<polygon class="st2" points="284,43.2 284,0 309.9,21.6 "/>
<polygon class="st2" points="284,129.6 284,86.4 309.9,108 "/>
<polygon class="st2" points="258.2,151.2 258.2,108 284,129.6 "/>
<polygon class="st2" points="258.2,194.4 258.2,151.2 284,172.8 "/>
<polygon class="st2" points="284,172.8 284,129.6 309.9,151.2 "/>
<polygon class="st2" points="284,216 284,172.8 309.9,194.4 "/>
<polygon class="st2" points="258.2,237.6 258.2,194.4 284,216 "/>
<polygon class="st2" points="258.2,280.8 258.2,237.6 284,259.2 "/>
<polygon class="st2" points="284,259.2 284,216 309.9,237.6 "/>
<polygon class="st2" points="258.2,324 258.2,280.8 284,302.4 "/>
<polygon class="st2" points="284,388.8 284,345.6 309.9,367.2 "/>
<polygon class="st2" points="284,475.2 284,432 309.9,453.6 "/>
<polygon class="st2" points="258.2,540 258.2,496.8 284,518.4 "/>
<polygon class="st2" points="284,518.4 284,475.2 309.9,496.8 "/>
<polygon class="st2" points="284,561.6 284,518.4 309.9,540 "/>
<polygon class="st2" points="258.2,583.2 258.2,540 284,561.6 "/>
<polygon class="st2" points="258.2,626.4 258.2,583.2 284,604.8 "/>
<polygon class="st2" points="284,648 284,604.8 309.9,626.4 "/>
<polygon class="st2" points="258.2,669.6 258.2,626.4 284,648 "/>
<polygon class="st2" points="284,691.2 284,648 309.9,669.6 "/>
<polygon class="st2" points="258.2,756 258.2,712.8 284,734.4 "/>
<polygon class="st2" points="258.2,799.2 258.2,756 284,777.6 "/>
<polygon class="st2" points="284,777.6 284,734.4 309.9,756 "/>
<polygon class="st2" points="258.2,842.4 258.2,799.2 284,820.8 "/>
<polygon class="st2" points="258.2,885.6 258.2,842.4 284,864 "/>
<polygon class="st2" points="284,907.2 284,864 309.9,885.6 "/>
<polygon class="st2" points="258.2,928.8 258.2,885.6 284,907.2 "/>
<polygon class="st2" points="284,950.4 284,907.2 309.9,928.8 "/>
<polygon class="st2" points="258.2,972 258.2,928.8 284,950.4 "/>
<polygon class="st2" points="258.2,1058.4 258.2,1015.2 284,1036.8 "/>
<polygon class="st2" points="284,993.6 284,950.4 309.9,972 "/>
<polygon class="st2" points="284,1036.8 284,993.6 309.9,1015.2 "/>
<polygon class="st2" points="284,1080 284,1036.8 309.9,1058.4 "/>
<polygon class="st2" points="309.9,64.8 309.9,21.6 335.7,43.2 "/>
<polygon class="st2" points="309.9,108 309.9,64.8 335.7,86.4 "/>
<polygon class="st2" points="335.7,86.4 335.7,43.2 361.5,64.8 "/>
<polygon class="st2" points="335.7,129.6 335.7,86.4 361.5,108 "/>
<polygon class="st2" points="309.9,151.2 309.9,108 335.7,129.6 "/>
<polygon class="st2" points="309.9,237.6 309.9,194.4 335.7,216 "/>
<polygon class="st2" points="309.9,280.8 309.9,237.6 335.7,259.2 "/>
<polygon class="st2" points="335.7,259.2 335.7,216 361.5,237.6 "/>
<polygon class="st2" points="335.7,302.4 335.7,259.2 361.5,280.8 "/>
<polygon class="st2" points="335.7,345.6 335.7,302.4 361.5,324 "/>
<polygon class="st2" points="335.7,388.8 335.7,345.6 361.5,367.2 "/>
<polygon class="st2" points="309.9,410.4 309.9,367.2 335.7,388.8 "/>
<polygon class="st2" points="309.9,453.6 309.9,410.4 335.7,432 "/>
<polygon class="st2" points="335.7,432 335.7,388.8 361.5,410.4 "/>
<polygon class="st2" points="335.7,475.2 335.7,432 361.5,453.6 "/>
<polygon class="st2" points="309.9,496.8 309.9,453.6 335.7,475.2 "/>
<polygon class="st2" points="335.7,518.4 335.7,475.2 361.5,496.8 "/>
<polygon class="st2" points="335.7,561.6 335.7,518.4 361.5,540 "/>
<polygon class="st2" points="309.9,583.2 309.9,540 335.7,561.6 "/>
<polygon class="st2" points="309.9,626.4 309.9,583.2 335.7,604.8 "/>
<polygon class="st2" points="309.9,669.6 309.9,626.4 335.7,648 "/>
<polygon class="st2" points="309.9,712.8 309.9,669.6 335.7,691.2 "/>
<polygon class="st2" points="335.7,691.2 335.7,648 361.5,669.6 "/>
<polygon class="st2" points="309.9,756 309.9,712.8 335.7,734.4 "/>
<polygon class="st2" points="309.9,799.2 309.9,756 335.7,777.6 "/>
<polygon class="st2" points="335.7,777.6 335.7,734.4 361.5,756 "/>
<polygon class="st2" points="335.7,820.8 335.7,777.6 361.5,799.2 "/>
<polygon class="st2" points="309.9,842.4 309.9,799.2 335.7,820.8 "/>
<polygon class="st2" points="309.9,885.6 309.9,842.4 335.7,864 "/>
<polygon class="st2" points="335.7,864 335.7,820.8 361.5,842.4 "/>
<polygon class="st2" points="335.7,950.4 335.7,907.2 361.5,928.8 "/>
<polygon class="st2" points="309.9,1015.2 309.9,972 335.7,993.6 "/>
<polygon class="st2" points="309.9,1058.4 309.9,1015.2 335.7,1036.8 "/>
<polygon class="st2" points="335.7,993.6 335.7,950.4 361.5,972 "/>
<polygon class="st2" points="335.7,1080 335.7,1036.8 361.5,1058.4 "/>
<polygon class="st3" points="361.5,64.8 361.5,21.6 387.3,43.2 "/>
<polygon class="st3" points="361.5,108 361.5,64.8 387.3,86.4 "/>
<polygon class="st3" points="387.3,86.4 387.3,43.2 413.2,64.8 "/>
<polygon class="st3" points="387.3,43.2 387.3,0 413.2,21.6 "/>
<polygon class="st3" points="387.3,129.6 387.3,86.4 413.2,108 "/>
<polygon class="st3" points="361.5,194.4 361.5,151.2 387.3,172.8 "/>
<polygon class="st3" points="387.3,172.8 387.3,129.6 413.2,151.2 "/>
<polygon class="st3" points="387.3,216 387.3,172.8 413.2,194.4 "/>
<polygon class="st3" points="361.5,237.6 361.5,194.4 387.3,216 "/>
<polygon class="st3" points="387.3,259.2 387.3,216 413.2,237.6 "/>
<polygon class="st3" points="387.3,302.4 387.3,259.2 413.2,280.8 "/>
<polygon class="st3" points="361.5,324 361.5,280.8 387.3,302.4 "/>
<polygon class="st3" points="361.5,367.2 361.5,324 387.3,345.6 "/>
<polygon class="st3" points="387.3,388.8 387.3,345.6 413.2,367.2 "/>
<polygon class="st3" points="361.5,453.6 361.5,410.4 387.3,432 "/>
<polygon class="st3" points="387.3,475.2 387.3,432 413.2,453.6 "/>
<polygon class="st3" points="361.5,496.8 361.5,453.6 387.3,475.2 "/>
<polygon class="st3" points="387.3,518.4 387.3,475.2 413.2,496.8 "/>
<polygon class="st3" points="387.3,561.6 387.3,518.4 413.2,540 "/>
<polygon class="st3" points="361.5,583.2 361.5,540 387.3,561.6 "/>
<polygon class="st3" points="361.5,626.4 361.5,583.2 387.3,604.8 "/>
<polygon class="st3" points="387.3,604.8 387.3,561.6 413.2,583.2 "/>
<polygon class="st3" points="361.5,669.6 361.5,626.4 387.3,648 "/>
<polygon class="st3" points="361.5,712.8 361.5,669.6 387.3,691.2 "/>
<polygon class="st3" points="387.3,691.2 387.3,648 413.2,669.6 "/>
<polygon class="st3" points="361.5,756 361.5,712.8 387.3,734.4 "/>
<polygon class="st3" points="361.5,799.2 361.5,756 387.3,777.6 "/>
<polygon class="st3" points="387.3,777.6 387.3,734.4 413.2,756 "/>
<polygon class="st3" points="361.5,885.6 361.5,842.4 387.3,864 "/>
<polygon class="st3" points="387.3,864 387.3,820.8 413.2,842.4 "/>
<polygon class="st3" points="387.3,907.2 387.3,864 413.2,885.6 "/>
<polygon class="st3" points="361.5,928.8 361.5,885.6 387.3,907.2 "/>
<polygon class="st3" points="361.5,972 361.5,928.8 387.3,950.4 "/>
<polygon class="st3" points="361.5,1058.4 361.5,1015.2 387.3,1036.8 "/>
<polygon class="st3" points="387.3,1080 387.3,1036.8 413.2,1058.4 "/>
<polygon class="st3" points="413.2,64.8 413.2,21.6 439,43.2 "/>
<polygon class="st3" points="413.2,108 413.2,64.8 439,86.4 "/>
<polygon class="st3" points="439,43.2 439,0 464.8,21.6 "/>
<polygon class="st3" points="439,129.6 439,86.4 464.8,108 "/>
<polygon class="st3" points="413.2,151.2 413.2,108 439,129.6 "/>
<polygon class="st3" points="439,172.8 439,129.6 464.8,151.2 "/>
<polygon class="st3" points="439,216 439,172.8 464.8,194.4 "/>
<polygon class="st3" points="413.2,237.6 413.2,194.4 439,216 "/>
<polygon class="st3" points="413.2,280.8 413.2,237.6 439,259.2 "/>
<polygon class="st3" points="439,259.2 439,216 464.8,237.6 "/>
<polygon class="st3" points="439,302.4 439,259.2 464.8,280.8 "/>
<polygon class="st3" points="413.2,324 413.2,280.8 439,302.4 "/>
<polygon class="st3" points="413.2,367.2 413.2,324 439,345.6 "/>
<polygon class="st3" points="439,345.6 439,302.4 464.8,324 "/>
<polygon class="st3" points="413.2,410.4 413.2,367.2 439,388.8 "/>
<polygon class="st3" points="413.2,453.6 413.2,410.4 439,432 "/>
<polygon class="st3" points="439,432 439,388.8 464.8,410.4 "/>
<polygon class="st3" points="439,475.2 439,432 464.8,453.6 "/>
<polygon class="st3" points="413.2,540 413.2,496.8 439,518.4 "/>
<polygon class="st3" points="439,518.4 439,475.2 464.8,496.8 "/>
<polygon class="st3" points="413.2,583.2 413.2,540 439,561.6 "/>
<polygon class="st3" points="413.2,626.4 413.2,583.2 439,604.8 "/>
<polygon class="st3" points="439,604.8 439,561.6 464.8,583.2 "/>
<polygon class="st3" points="439,648 439,604.8 464.8,626.4 "/>
<polygon class="st3" points="439,691.2 439,648 464.8,669.6 "/>
<polygon class="st3" points="439,734.4 439,691.2 464.8,712.8 "/>
<polygon class="st3" points="413.2,756 413.2,712.8 439,734.4 "/>
<polygon class="st3" points="413.2,799.2 413.2,756 439,777.6 "/>
<polygon class="st3" points="439,777.6 439,734.4 464.8,756 "/>
<polygon class="st3" points="439,864 439,820.8 464.8,842.4 "/>
<polygon class="st3" points="439,907.2 439,864 464.8,885.6 "/>
<polygon class="st3" points="413.2,928.8 413.2,885.6 439,907.2 "/>
<polygon class="st3" points="439,950.4 439,907.2 464.8,928.8 "/>
<polygon class="st3" points="413.2,1015.2 413.2,972 439,993.6 "/>
<polygon class="st3" points="413.2,1058.4 413.2,1015.2 439,1036.8 "/>
<polygon class="st3" points="439,993.6 439,950.4 464.8,972 "/>
<polygon class="st3" points="439,1036.8 439,993.6 464.8,1015.2 "/>
<polygon class="st3" points="439,1080 439,1036.8 464.8,1058.4 "/>
<polygon class="st4" points="464.8,64.8 464.8,21.6 490.6,43.2 "/>
<polygon class="st4" points="490.6,86.4 490.6,43.2 516.5,64.8 "/>
<polygon class="st4" points="490.6,43.2 490.6,0 516.5,21.6 "/>
<polygon class="st4" points="490.6,129.6 490.6,86.4 516.5,108 "/>
<polygon class="st4" points="464.8,151.2 464.8,108 490.6,129.6 "/>
<polygon class="st4" points="464.8,194.4 464.8,151.2 490.6,172.8 "/>
<polygon class="st4" points="464.8,237.6 464.8,194.4 490.6,216 "/>
<polygon class="st4" points="490.6,259.2 490.6,216 516.5,237.6 "/>
<polygon class="st4" points="490.6,302.4 490.6,259.2 516.5,280.8 "/>
<polygon class="st4" points="464.8,367.2 464.8,324 490.6,345.6 "/>
<polygon class="st4" points="490.6,345.6 490.6,302.4 516.5,324 "/>
<polygon class="st4" points="490.6,388.8 490.6,345.6 516.5,367.2 "/>
<polygon class="st4" points="464.8,410.4 464.8,367.2 490.6,388.8 "/>
<polygon class="st4" points="464.8,453.6 464.8,410.4 490.6,432 "/>
<polygon class="st4" points="490.6,432 490.6,388.8 516.5,410.4 "/>
<polygon class="st4" points="490.6,475.2 490.6,432 516.5,453.6 "/>
<polygon class="st4" points="464.8,540 464.8,496.8 490.6,518.4 "/>
<polygon class="st4" points="490.6,518.4 490.6,475.2 516.5,496.8 "/>
<polygon class="st4" points="490.6,561.6 490.6,518.4 516.5,540 "/>
<polygon class="st4" points="464.8,583.2 464.8,540 490.6,561.6 "/>
<polygon class="st4" points="464.8,626.4 464.8,583.2 490.6,604.8 "/>
<polygon class="st4" points="490.6,604.8 490.6,561.6 516.5,583.2 "/>
<polygon class="st4" points="490.6,648 490.6,604.8 516.5,626.4 "/>
<polygon class="st4" points="464.8,669.6 464.8,626.4 490.6,648 "/>
<polygon class="st4" points="464.8,712.8 464.8,669.6 490.6,691.2 "/>
<polygon class="st4" points="490.6,691.2 490.6,648 516.5,669.6 "/>
<polygon class="st4" points="464.8,756 464.8,712.8 490.6,734.4 "/>
<polygon class="st4" points="464.8,799.2 464.8,756 490.6,777.6 "/>
<polygon class="st4" points="490.6,777.6 490.6,734.4 516.5,756 "/>
<polygon class="st4" points="464.8,842.4 464.8,799.2 490.6,820.8 "/>
<polygon class="st4" points="464.8,885.6 464.8,842.4 490.6,864 "/>
<polygon class="st4" points="490.6,864 490.6,820.8 516.5,842.4 "/>
<polygon class="st4" points="464.8,928.8 464.8,885.6 490.6,907.2 "/>
<polygon class="st4" points="490.6,950.4 490.6,907.2 516.5,928.8 "/>
<polygon class="st4" points="464.8,972 464.8,928.8 490.6,950.4 "/>
<polygon class="st4" points="464.8,1015.2 464.8,972 490.6,993.6 "/>
<polygon class="st4" points="464.8,1058.4 464.8,1015.2 490.6,1036.8 "/>
<g>
	<polygon class="st0" points="1920,1015.2 1920,1058.4 1894.2,1036.8 	"/>
	<polygon class="st0" points="1920,972 1920,1015.2 1894.2,993.6 	"/>
	<polygon class="st0" points="1894.2,993.6 1894.2,1036.8 1868.4,1015.2 	"/>
	<polygon class="st0" points="1894.2,1036.8 1894.2,1080 1868.4,1058.4 	"/>
	<polygon class="st0" points="1920,928.8 1920,972 1894.2,950.4 	"/>
	<polygon class="st0" points="1920,885.6 1920,928.8 1894.2,907.2 	"/>
	<polygon class="st0" points="1894.2,907.2 1894.2,950.4 1868.4,928.8 	"/>
	<polygon class="st0" points="1894.2,864 1894.2,907.2 1868.4,885.6 	"/>
	<polygon class="st0" points="1920,842.4 1920,885.6 1894.2,864 	"/>
	<polygon class="st0" points="1894.2,820.8 1894.2,864 1868.4,842.4 	"/>
	<polygon class="st0" points="1894.2,777.6 1894.2,820.8 1868.4,799.2 	"/>
	<polygon class="st0" points="1920,756 1920,799.2 1894.2,777.6 	"/>
	<polygon class="st0" points="1894.2,691.2 1894.2,734.4 1868.4,712.8 	"/>
	<polygon class="st0" points="1920,669.6 1920,712.8 1894.2,691.2 	"/>
	<polygon class="st0" points="1920,626.4 1920,669.6 1894.2,648 	"/>
	<polygon class="st0" points="1920,583.2 1920,626.4 1894.2,604.8 	"/>
	<polygon class="st0" points="1920,540 1920,583.2 1894.2,561.6 	"/>
	<polygon class="st0" points="1894.2,561.6 1894.2,604.8 1868.4,583.2 	"/>
	<polygon class="st0" points="1894.2,518.4 1894.2,561.6 1868.4,540 	"/>
	<polygon class="st0" points="1920,496.8 1920,540 1894.2,518.4 	"/>
	<polygon class="st0" points="1920,453.6 1920,496.8 1894.2,475.2 	"/>
	<polygon class="st0" points="1894.2,475.2 1894.2,518.4 1868.4,496.8 	"/>
	<polygon class="st0" points="1894.2,432 1894.2,475.2 1868.4,453.6 	"/>
	<polygon class="st0" points="1920,410.4 1920,453.6 1894.2,432 	"/>
	<polygon class="st0" points="1894.2,388.8 1894.2,432 1868.4,410.4 	"/>
	<polygon class="st0" points="1894.2,345.6 1894.2,388.8 1868.4,367.2 	"/>
	<polygon class="st0" points="1920,324 1920,367.2 1894.2,345.6 	"/>
	<polygon class="st0" points="1920,280.8 1920,324 1894.2,302.4 	"/>
	<polygon class="st0" points="1894.2,259.2 1894.2,302.4 1868.4,280.8 	"/>
	<polygon class="st0" points="1920,194.4 1920,237.6 1894.2,216 	"/>
	<polygon class="st0" points="1894.2,172.8 1894.2,216 1868.4,194.4 	"/>
	<polygon class="st0" points="1920,151.2 1920,194.4 1894.2,172.8 	"/>
	<polygon class="st0" points="1894.2,129.6 1894.2,172.8 1868.4,151.2 	"/>
	<polygon class="st0" points="1920,64.8 1920,108 1894.2,86.4 	"/>
	<polygon class="st0" points="1920,21.6 1920,64.8 1894.2,43.2 	"/>
	<polygon class="st0" points="1894.2,86.4 1894.2,129.6 1868.4,108 	"/>
	<polygon class="st0" points="1894.2,0 1894.2,43.2 1868.4,21.6 	"/>
	<polygon class="st0" points="1868.4,1015.2 1868.4,1058.4 1842.5,1036.8 	"/>
	<polygon class="st0" points="1842.5,993.6 1842.5,1036.8 1816.7,1015.2 	"/>
	<polygon class="st0" points="1842.5,1036.8 1842.5,1080 1816.7,1058.4 	"/>
	<polygon class="st0" points="1842.5,950.4 1842.5,993.6 1816.7,972 	"/>
	<polygon class="st0" points="1868.4,928.8 1868.4,972 1842.5,950.4 	"/>
	<polygon class="st0" points="1868.4,885.6 1868.4,928.8 1842.5,907.2 	"/>
	<polygon class="st0" points="1842.5,907.2 1842.5,950.4 1816.7,928.8 	"/>
	<polygon class="st0" points="1842.5,864 1842.5,907.2 1816.7,885.6 	"/>
	<polygon class="st0" points="1868.4,842.4 1868.4,885.6 1842.5,864 	"/>
	<polygon class="st0" points="1842.5,820.8 1842.5,864 1816.7,842.4 	"/>
	<polygon class="st0" points="1842.5,777.6 1842.5,820.8 1816.7,799.2 	"/>
	<polygon class="st0" points="1868.4,756 1868.4,799.2 1842.5,777.6 	"/>
	<polygon class="st0" points="1868.4,712.8 1868.4,756 1842.5,734.4 	"/>
	<polygon class="st0" points="1842.5,734.4 1842.5,777.6 1816.7,756 	"/>
	<polygon class="st0" points="1868.4,669.6 1868.4,712.8 1842.5,691.2 	"/>
	<polygon class="st0" points="1868.4,626.4 1868.4,669.6 1842.5,648 	"/>
	<polygon class="st0" points="1842.5,648 1842.5,691.2 1816.7,669.6 	"/>
	<polygon class="st0" points="1868.4,583.2 1868.4,626.4 1842.5,604.8 	"/>
	<polygon class="st0" points="1868.4,540 1868.4,583.2 1842.5,561.6 	"/>
	<polygon class="st0" points="1842.5,561.6 1842.5,604.8 1816.7,583.2 	"/>
	<polygon class="st0" points="1842.5,518.4 1842.5,561.6 1816.7,540 	"/>
	<polygon class="st0" points="1868.4,496.8 1868.4,540 1842.5,518.4 	"/>
	<polygon class="st0" points="1868.4,453.6 1868.4,496.8 1842.5,475.2 	"/>
	<polygon class="st0" points="1842.5,432 1842.5,475.2 1816.7,453.6 	"/>
	<polygon class="st0" points="1842.5,345.6 1842.5,388.8 1816.7,367.2 	"/>
	<polygon class="st0" points="1868.4,324 1868.4,367.2 1842.5,345.6 	"/>
	<polygon class="st0" points="1868.4,280.8 1868.4,324 1842.5,302.4 	"/>
	<polygon class="st0" points="1842.5,302.4 1842.5,345.6 1816.7,324 	"/>
	<polygon class="st0" points="1842.5,259.2 1842.5,302.4 1816.7,280.8 	"/>
	<polygon class="st0" points="1868.4,237.6 1868.4,280.8 1842.5,259.2 	"/>
	<polygon class="st0" points="1868.4,194.4 1868.4,237.6 1842.5,216 	"/>
	<polygon class="st0" points="1842.5,216 1842.5,259.2 1816.7,237.6 	"/>
	<polygon class="st0" points="1842.5,172.8 1842.5,216 1816.7,194.4 	"/>
	<polygon class="st0" points="1868.4,151.2 1868.4,194.4 1842.5,172.8 	"/>
	<polygon class="st0" points="1842.5,129.6 1842.5,172.8 1816.7,151.2 	"/>
	<polygon class="st0" points="1868.4,108 1868.4,151.2 1842.5,129.6 	"/>
	<polygon class="st0" points="1868.4,64.8 1868.4,108 1842.5,86.4 	"/>
	<polygon class="st0" points="1868.4,21.6 1868.4,64.8 1842.5,43.2 	"/>
	<polygon class="st0" points="1842.5,43.2 1842.5,86.4 1816.7,64.8 	"/>
	<polygon class="st0" points="1842.5,0 1842.5,43.2 1816.7,21.6 	"/>
	<polygon class="st0" points="1816.7,1015.2 1816.7,1058.4 1790.9,1036.8 	"/>
	<polygon class="st0" points="1816.7,972 1816.7,1015.2 1790.9,993.6 	"/>
	<polygon class="st0" points="1790.9,993.6 1790.9,1036.8 1765.1,1015.2 	"/>
	<polygon class="st0" points="1790.9,1036.8 1790.9,1080 1765.1,1058.4 	"/>
	<polygon class="st0" points="1816.7,928.8 1816.7,972 1790.9,950.4 	"/>
	<polygon class="st0" points="1790.9,907.2 1790.9,950.4 1765.1,928.8 	"/>
	<polygon class="st0" points="1790.9,864 1790.9,907.2 1765.1,885.6 	"/>
	<polygon class="st0" points="1816.7,842.4 1816.7,885.6 1790.9,864 	"/>
	<polygon class="st0" points="1816.7,799.2 1816.7,842.4 1790.9,820.8 	"/>
	<polygon class="st0" points="1790.9,820.8 1790.9,864 1765.1,842.4 	"/>
	<polygon class="st0" points="1790.9,777.6 1790.9,820.8 1765.1,799.2 	"/>
	<polygon class="st0" points="1816.7,712.8 1816.7,756 1790.9,734.4 	"/>
	<polygon class="st0" points="1790.9,691.2 1790.9,734.4 1765.1,712.8 	"/>
	<polygon class="st0" points="1816.7,669.6 1816.7,712.8 1790.9,691.2 	"/>
	<polygon class="st0" points="1816.7,626.4 1816.7,669.6 1790.9,648 	"/>
	<polygon class="st0" points="1790.9,648 1790.9,691.2 1765.1,669.6 	"/>
	<polygon class="st0" points="1790.9,604.8 1790.9,648 1765.1,626.4 	"/>
	<polygon class="st0" points="1816.7,540 1816.7,583.2 1790.9,561.6 	"/>
	<polygon class="st0" points="1790.9,561.6 1790.9,604.8 1765.1,583.2 	"/>
	<polygon class="st0" points="1790.9,518.4 1790.9,561.6 1765.1,540 	"/>
	<polygon class="st0" points="1790.9,432 1790.9,475.2 1765.1,453.6 	"/>
	<polygon class="st0" points="1816.7,410.4 1816.7,453.6 1790.9,432 	"/>
	<polygon class="st0" points="1816.7,367.2 1816.7,410.4 1790.9,388.8 	"/>
	<polygon class="st0" points="1790.9,388.8 1790.9,432 1765.1,410.4 	"/>
	<polygon class="st0" points="1790.9,345.6 1790.9,388.8 1765.1,367.2 	"/>
	<polygon class="st0" points="1816.7,324 1816.7,367.2 1790.9,345.6 	"/>
	<polygon class="st0" points="1816.7,280.8 1816.7,324 1790.9,302.4 	"/>
	<polygon class="st0" points="1790.9,302.4 1790.9,345.6 1765.1,324 	"/>
	<polygon class="st0" points="1816.7,237.6 1816.7,280.8 1790.9,259.2 	"/>
	<polygon class="st0" points="1816.7,194.4 1816.7,237.6 1790.9,216 	"/>
	<polygon class="st0" points="1790.9,216 1790.9,259.2 1765.1,237.6 	"/>
	<polygon class="st0" points="1790.9,172.8 1790.9,216 1765.1,194.4 	"/>
	<polygon class="st0" points="1790.9,129.6 1790.9,172.8 1765.1,151.2 	"/>
	<polygon class="st0" points="1816.7,64.8 1816.7,108 1790.9,86.4 	"/>
	<polygon class="st0" points="1816.7,21.6 1816.7,64.8 1790.9,43.2 	"/>
	<polygon class="st0" points="1790.9,43.2 1790.9,86.4 1765.1,64.8 	"/>
	<polygon class="st0" points="1790.9,0 1790.9,43.2 1765.1,21.6 	"/>
	<polygon class="st1" points="1739.2,993.6 1739.2,1036.8 1713.4,1015.2 	"/>
	<polygon class="st1" points="1739.2,1036.8 1739.2,1080 1713.4,1058.4 	"/>
	<polygon class="st1" points="1739.2,950.4 1739.2,993.6 1713.4,972 	"/>
	<polygon class="st1" points="1765.1,928.8 1765.1,972 1739.2,950.4 	"/>
	<polygon class="st1" points="1765.1,885.6 1765.1,928.8 1739.2,907.2 	"/>
	<polygon class="st1" points="1739.2,907.2 1739.2,950.4 1713.4,928.8 	"/>
	<polygon class="st1" points="1765.1,799.2 1765.1,842.4 1739.2,820.8 	"/>
	<polygon class="st1" points="1739.2,820.8 1739.2,864 1713.4,842.4 	"/>
	<polygon class="st1" points="1765.1,712.8 1765.1,756 1739.2,734.4 	"/>
	<polygon class="st1" points="1739.2,734.4 1739.2,777.6 1713.4,756 	"/>
	<polygon class="st1" points="1765.1,626.4 1765.1,669.6 1739.2,648 	"/>
	<polygon class="st1" points="1739.2,648 1739.2,691.2 1713.4,669.6 	"/>
	<polygon class="st1" points="1739.2,604.8 1739.2,648 1713.4,626.4 	"/>
	<polygon class="st1" points="1765.1,583.2 1765.1,626.4 1739.2,604.8 	"/>
	<polygon class="st1" points="1739.2,561.6 1739.2,604.8 1713.4,583.2 	"/>
	<polygon class="st1" points="1765.1,496.8 1765.1,540 1739.2,518.4 	"/>
	<polygon class="st1" points="1739.2,475.2 1739.2,518.4 1713.4,496.8 	"/>
	<polygon class="st1" points="1739.2,432 1739.2,475.2 1713.4,453.6 	"/>
	<polygon class="st1" points="1739.2,345.6 1739.2,388.8 1713.4,367.2 	"/>
	<polygon class="st1" points="1765.1,324 1765.1,367.2 1739.2,345.6 	"/>
	<polygon class="st1" points="1765.1,280.8 1765.1,324 1739.2,302.4 	"/>
	<polygon class="st1" points="1739.2,259.2 1739.2,302.4 1713.4,280.8 	"/>
	<polygon class="st1" points="1765.1,194.4 1765.1,237.6 1739.2,216 	"/>
	<polygon class="st1" points="1739.2,216 1739.2,259.2 1713.4,237.6 	"/>
	<polygon class="st1" points="1765.1,151.2 1765.1,194.4 1739.2,172.8 	"/>
	<polygon class="st1" points="1739.2,129.6 1739.2,172.8 1713.4,151.2 	"/>
	<polygon class="st1" points="1765.1,108 1765.1,151.2 1739.2,129.6 	"/>
	<polygon class="st1" points="1765.1,64.8 1765.1,108 1739.2,86.4 	"/>
	<polygon class="st1" points="1739.2,43.2 1739.2,86.4 1713.4,64.8 	"/>
	<polygon class="st1" points="1739.2,0 1739.2,43.2 1713.4,21.6 	"/>
	<polygon class="st1" points="1713.4,1015.2 1713.4,1058.4 1687.6,1036.8 	"/>
	<polygon class="st1" points="1713.4,972 1713.4,1015.2 1687.6,993.6 	"/>
	<polygon class="st1" points="1687.6,993.6 1687.6,1036.8 1661.8,1015.2 	"/>
	<polygon class="st1" points="1687.6,1036.8 1687.6,1080 1661.8,1058.4 	"/>
	<polygon class="st1" points="1687.6,950.4 1687.6,993.6 1661.8,972 	"/>
	<polygon class="st1" points="1687.6,907.2 1687.6,950.4 1661.8,928.8 	"/>
	<polygon class="st1" points="1687.6,864 1687.6,907.2 1661.8,885.6 	"/>
	<polygon class="st1" points="1713.4,842.4 1713.4,885.6 1687.6,864 	"/>
	<polygon class="st1" points="1687.6,777.6 1687.6,820.8 1661.8,799.2 	"/>
	<polygon class="st1" points="1713.4,756 1713.4,799.2 1687.6,777.6 	"/>
	<polygon class="st1" points="1713.4,712.8 1713.4,756 1687.6,734.4 	"/>
	<polygon class="st1" points="1687.6,691.2 1687.6,734.4 1661.8,712.8 	"/>
	<polygon class="st1" points="1713.4,669.6 1713.4,712.8 1687.6,691.2 	"/>
	<polygon class="st1" points="1713.4,626.4 1713.4,669.6 1687.6,648 	"/>
	<polygon class="st1" points="1713.4,583.2 1713.4,626.4 1687.6,604.8 	"/>
	<polygon class="st1" points="1713.4,496.8 1713.4,540 1687.6,518.4 	"/>
	<polygon class="st1" points="1687.6,475.2 1687.6,518.4 1661.8,496.8 	"/>
	<polygon class="st1" points="1687.6,432 1687.6,475.2 1661.8,453.6 	"/>
	<polygon class="st1" points="1713.4,410.4 1713.4,453.6 1687.6,432 	"/>
	<polygon class="st1" points="1713.4,367.2 1713.4,410.4 1687.6,388.8 	"/>
	<polygon class="st1" points="1687.6,388.8 1687.6,432 1661.8,410.4 	"/>
	<polygon class="st1" points="1687.6,345.6 1687.6,388.8 1661.8,367.2 	"/>
	<polygon class="st1" points="1713.4,280.8 1713.4,324 1687.6,302.4 	"/>
	<polygon class="st1" points="1687.6,302.4 1687.6,345.6 1661.8,324 	"/>
	<polygon class="st1" points="1687.6,259.2 1687.6,302.4 1661.8,280.8 	"/>
	<polygon class="st1" points="1713.4,194.4 1713.4,237.6 1687.6,216 	"/>
	<polygon class="st1" points="1687.6,216 1687.6,259.2 1661.8,237.6 	"/>
	<polygon class="st1" points="1687.6,172.8 1687.6,216 1661.8,194.4 	"/>
	<polygon class="st1" points="1687.6,129.6 1687.6,172.8 1661.8,151.2 	"/>
	<polygon class="st1" points="1713.4,108 1713.4,151.2 1687.6,129.6 	"/>
	<polygon class="st1" points="1713.4,64.8 1713.4,108 1687.6,86.4 	"/>
	<polygon class="st1" points="1687.6,86.4 1687.6,129.6 1661.8,108 	"/>
	<polygon class="st1" points="1687.6,43.2 1687.6,86.4 1661.8,64.8 	"/>
	<polygon class="st1" points="1687.6,0 1687.6,43.2 1661.8,21.6 	"/>
	<polygon class="st2" points="1661.8,972 1661.8,1015.2 1636,993.6 	"/>
	<polygon class="st2" points="1636,993.6 1636,1036.8 1610.1,1015.2 	"/>
	<polygon class="st2" points="1636,1036.8 1636,1080 1610.1,1058.4 	"/>
	<polygon class="st2" points="1636,950.4 1636,993.6 1610.1,972 	"/>
	<polygon class="st2" points="1661.8,928.8 1661.8,972 1636,950.4 	"/>
	<polygon class="st2" points="1661.8,885.6 1661.8,928.8 1636,907.2 	"/>
	<polygon class="st2" points="1636,907.2 1636,950.4 1610.1,928.8 	"/>
	<polygon class="st2" points="1636,864 1636,907.2 1610.1,885.6 	"/>
	<polygon class="st2" points="1661.8,842.4 1661.8,885.6 1636,864 	"/>
	<polygon class="st2" points="1661.8,799.2 1661.8,842.4 1636,820.8 	"/>
	<polygon class="st2" points="1636,820.8 1636,864 1610.1,842.4 	"/>
	<polygon class="st2" points="1661.8,756 1661.8,799.2 1636,777.6 	"/>
	<polygon class="st2" points="1636,691.2 1636,734.4 1610.1,712.8 	"/>
	<polygon class="st2" points="1636,604.8 1636,648 1610.1,626.4 	"/>
	<polygon class="st2" points="1661.8,540 1661.8,583.2 1636,561.6 	"/>
	<polygon class="st2" points="1636,561.6 1636,604.8 1610.1,583.2 	"/>
	<polygon class="st2" points="1636,518.4 1636,561.6 1610.1,540 	"/>
	<polygon class="st2" points="1661.8,496.8 1661.8,540 1636,518.4 	"/>
	<polygon class="st2" points="1661.8,453.6 1661.8,496.8 1636,475.2 	"/>
	<polygon class="st2" points="1636,432 1636,475.2 1610.1,453.6 	"/>
	<polygon class="st2" points="1661.8,410.4 1661.8,453.6 1636,432 	"/>
	<polygon class="st2" points="1636,388.8 1636,432 1610.1,410.4 	"/>
	<polygon class="st2" points="1661.8,324 1661.8,367.2 1636,345.6 	"/>
	<polygon class="st2" points="1661.8,280.8 1661.8,324 1636,302.4 	"/>
	<polygon class="st2" points="1636,302.4 1636,345.6 1610.1,324 	"/>
	<polygon class="st2" points="1661.8,237.6 1661.8,280.8 1636,259.2 	"/>
	<polygon class="st2" points="1661.8,194.4 1661.8,237.6 1636,216 	"/>
	<polygon class="st2" points="1636,172.8 1636,216 1610.1,194.4 	"/>
	<polygon class="st2" points="1661.8,151.2 1661.8,194.4 1636,172.8 	"/>
	<polygon class="st2" points="1636,129.6 1636,172.8 1610.1,151.2 	"/>
	<polygon class="st2" points="1661.8,108 1661.8,151.2 1636,129.6 	"/>
	<polygon class="st2" points="1661.8,21.6 1661.8,64.8 1636,43.2 	"/>
	<polygon class="st2" points="1636,86.4 1636,129.6 1610.1,108 	"/>
	<polygon class="st2" points="1636,43.2 1636,86.4 1610.1,64.8 	"/>
	<polygon class="st2" points="1636,0 1636,43.2 1610.1,21.6 	"/>
	<polygon class="st2" points="1610.1,1015.2 1610.1,1058.4 1584.3,1036.8 	"/>
	<polygon class="st2" points="1610.1,972 1610.1,1015.2 1584.3,993.6 	"/>
	<polygon class="st2" points="1584.3,993.6 1584.3,1036.8 1558.5,1015.2 	"/>
	<polygon class="st2" points="1584.3,950.4 1584.3,993.6 1558.5,972 	"/>
	<polygon class="st2" points="1610.1,928.8 1610.1,972 1584.3,950.4 	"/>
	<polygon class="st2" points="1610.1,842.4 1610.1,885.6 1584.3,864 	"/>
	<polygon class="st2" points="1610.1,799.2 1610.1,842.4 1584.3,820.8 	"/>
	<polygon class="st2" points="1584.3,820.8 1584.3,864 1558.5,842.4 	"/>
	<polygon class="st2" points="1584.3,777.6 1584.3,820.8 1558.5,799.2 	"/>
	<polygon class="st2" points="1584.3,734.4 1584.3,777.6 1558.5,756 	"/>
	<polygon class="st2" points="1584.3,691.2 1584.3,734.4 1558.5,712.8 	"/>
	<polygon class="st2" points="1610.1,669.6 1610.1,712.8 1584.3,691.2 	"/>
	<polygon class="st2" points="1610.1,626.4 1610.1,669.6 1584.3,648 	"/>
	<polygon class="st2" points="1584.3,648 1584.3,691.2 1558.5,669.6 	"/>
	<polygon class="st2" points="1584.3,604.8 1584.3,648 1558.5,626.4 	"/>
	<polygon class="st2" points="1610.1,583.2 1610.1,626.4 1584.3,604.8 	"/>
	<polygon class="st2" points="1584.3,561.6 1584.3,604.8 1558.5,583.2 	"/>
	<polygon class="st2" points="1584.3,518.4 1584.3,561.6 1558.5,540 	"/>
	<polygon class="st2" points="1610.1,496.8 1610.1,540 1584.3,518.4 	"/>
	<polygon class="st2" points="1610.1,453.6 1610.1,496.8 1584.3,475.2 	"/>
	<polygon class="st2" points="1610.1,410.4 1610.1,453.6 1584.3,432 	"/>
	<polygon class="st2" points="1610.1,367.2 1610.1,410.4 1584.3,388.8 	"/>
	<polygon class="st2" points="1584.3,388.8 1584.3,432 1558.5,410.4 	"/>
	<polygon class="st2" points="1610.1,324 1610.1,367.2 1584.3,345.6 	"/>
	<polygon class="st2" points="1610.1,280.8 1610.1,324 1584.3,302.4 	"/>
	<polygon class="st2" points="1584.3,302.4 1584.3,345.6 1558.5,324 	"/>
	<polygon class="st2" points="1584.3,259.2 1584.3,302.4 1558.5,280.8 	"/>
	<polygon class="st2" points="1610.1,237.6 1610.1,280.8 1584.3,259.2 	"/>
	<polygon class="st2" points="1610.1,194.4 1610.1,237.6 1584.3,216 	"/>
	<polygon class="st2" points="1584.3,216 1584.3,259.2 1558.5,237.6 	"/>
	<polygon class="st2" points="1584.3,129.6 1584.3,172.8 1558.5,151.2 	"/>
	<polygon class="st2" points="1610.1,64.8 1610.1,108 1584.3,86.4 	"/>
	<polygon class="st2" points="1610.1,21.6 1610.1,64.8 1584.3,43.2 	"/>
	<polygon class="st2" points="1584.3,86.4 1584.3,129.6 1558.5,108 	"/>
	<polygon class="st2" points="1584.3,0 1584.3,43.2 1558.5,21.6 	"/>
	<polygon class="st3" points="1558.5,1015.2 1558.5,1058.4 1532.7,1036.8 	"/>
	<polygon class="st3" points="1558.5,972 1558.5,1015.2 1532.7,993.6 	"/>
	<polygon class="st3" points="1532.7,993.6 1532.7,1036.8 1506.8,1015.2 	"/>
	<polygon class="st3" points="1532.7,1036.8 1532.7,1080 1506.8,1058.4 	"/>
	<polygon class="st3" points="1532.7,950.4 1532.7,993.6 1506.8,972 	"/>
	<polygon class="st3" points="1558.5,885.6 1558.5,928.8 1532.7,907.2 	"/>
	<polygon class="st3" points="1532.7,907.2 1532.7,950.4 1506.8,928.8 	"/>
	<polygon class="st3" points="1532.7,864 1532.7,907.2 1506.8,885.6 	"/>
	<polygon class="st3" points="1558.5,842.4 1558.5,885.6 1532.7,864 	"/>
	<polygon class="st3" points="1532.7,820.8 1532.7,864 1506.8,842.4 	"/>
	<polygon class="st3" points="1532.7,777.6 1532.7,820.8 1506.8,799.2 	"/>
	<polygon class="st3" points="1558.5,756 1558.5,799.2 1532.7,777.6 	"/>
	<polygon class="st3" points="1558.5,712.8 1558.5,756 1532.7,734.4 	"/>
	<polygon class="st3" points="1532.7,691.2 1532.7,734.4 1506.8,712.8 	"/>
	<polygon class="st3" points="1558.5,626.4 1558.5,669.6 1532.7,648 	"/>
	<polygon class="st3" points="1532.7,604.8 1532.7,648 1506.8,626.4 	"/>
	<polygon class="st3" points="1558.5,583.2 1558.5,626.4 1532.7,604.8 	"/>
	<polygon class="st3" points="1532.7,561.6 1532.7,604.8 1506.8,583.2 	"/>
	<polygon class="st3" points="1532.7,518.4 1532.7,561.6 1506.8,540 	"/>
	<polygon class="st3" points="1558.5,496.8 1558.5,540 1532.7,518.4 	"/>
	<polygon class="st3" points="1558.5,453.6 1558.5,496.8 1532.7,475.2 	"/>
	<polygon class="st3" points="1532.7,475.2 1532.7,518.4 1506.8,496.8 	"/>
	<polygon class="st3" points="1558.5,410.4 1558.5,453.6 1532.7,432 	"/>
	<polygon class="st3" points="1558.5,367.2 1558.5,410.4 1532.7,388.8 	"/>
	<polygon class="st3" points="1532.7,388.8 1532.7,432 1506.8,410.4 	"/>
	<polygon class="st3" points="1558.5,324 1558.5,367.2 1532.7,345.6 	"/>
	<polygon class="st3" points="1558.5,280.8 1558.5,324 1532.7,302.4 	"/>
	<polygon class="st3" points="1532.7,302.4 1532.7,345.6 1506.8,324 	"/>
	<polygon class="st3" points="1558.5,194.4 1558.5,237.6 1532.7,216 	"/>
	<polygon class="st3" points="1532.7,216 1532.7,259.2 1506.8,237.6 	"/>
	<polygon class="st3" points="1532.7,172.8 1532.7,216 1506.8,194.4 	"/>
	<polygon class="st3" points="1558.5,151.2 1558.5,194.4 1532.7,172.8 	"/>
	<polygon class="st3" points="1558.5,108 1558.5,151.2 1532.7,129.6 	"/>
	<polygon class="st3" points="1558.5,21.6 1558.5,64.8 1532.7,43.2 	"/>
	<polygon class="st3" points="1532.7,0 1532.7,43.2 1506.8,21.6 	"/>
	<polygon class="st3" points="1506.8,1015.2 1506.8,1058.4 1481,1036.8 	"/>
	<polygon class="st3" points="1506.8,972 1506.8,1015.2 1481,993.6 	"/>
	<polygon class="st3" points="1481,1036.8 1481,1080 1455.2,1058.4 	"/>
	<polygon class="st3" points="1481,950.4 1481,993.6 1455.2,972 	"/>
	<polygon class="st3" points="1506.8,928.8 1506.8,972 1481,950.4 	"/>
	<polygon class="st3" points="1481,907.2 1481,950.4 1455.2,928.8 	"/>
	<polygon class="st3" points="1481,864 1481,907.2 1455.2,885.6 	"/>
	<polygon class="st3" points="1506.8,842.4 1506.8,885.6 1481,864 	"/>
	<polygon class="st3" points="1506.8,799.2 1506.8,842.4 1481,820.8 	"/>
	<polygon class="st3" points="1481,820.8 1481,864 1455.2,842.4 	"/>
	<polygon class="st3" points="1481,777.6 1481,820.8 1455.2,799.2 	"/>
	<polygon class="st3" points="1506.8,756 1506.8,799.2 1481,777.6 	"/>
	<polygon class="st3" points="1506.8,712.8 1506.8,756 1481,734.4 	"/>
	<polygon class="st3" points="1481,734.4 1481,777.6 1455.2,756 	"/>
	<polygon class="st3" points="1506.8,669.6 1506.8,712.8 1481,691.2 	"/>
	<polygon class="st3" points="1506.8,626.4 1506.8,669.6 1481,648 	"/>
	<polygon class="st3" points="1481,648 1481,691.2 1455.2,669.6 	"/>
	<polygon class="st3" points="1481,604.8 1481,648 1455.2,626.4 	"/>
	<polygon class="st3" points="1506.8,540 1506.8,583.2 1481,561.6 	"/>
	<polygon class="st3" points="1481,561.6 1481,604.8 1455.2,583.2 	"/>
	<polygon class="st3" points="1506.8,496.8 1506.8,540 1481,518.4 	"/>
	<polygon class="st3" points="1506.8,453.6 1506.8,496.8 1481,475.2 	"/>
	<polygon class="st3" points="1481,475.2 1481,518.4 1455.2,496.8 	"/>
	<polygon class="st3" points="1481,432 1481,475.2 1455.2,453.6 	"/>
	<polygon class="st3" points="1481,388.8 1481,432 1455.2,410.4 	"/>
	<polygon class="st3" points="1481,345.6 1481,388.8 1455.2,367.2 	"/>
	<polygon class="st3" points="1506.8,324 1506.8,367.2 1481,345.6 	"/>
	<polygon class="st3" points="1506.8,280.8 1506.8,324 1481,302.4 	"/>
	<polygon class="st3" points="1481,302.4 1481,345.6 1455.2,324 	"/>
	<polygon class="st3" points="1481,216 1481,259.2 1455.2,237.6 	"/>
	<polygon class="st3" points="1481,172.8 1481,216 1455.2,194.4 	"/>
	<polygon class="st3" points="1506.8,151.2 1506.8,194.4 1481,172.8 	"/>
	<polygon class="st3" points="1481,129.6 1481,172.8 1455.2,151.2 	"/>
	<polygon class="st3" points="1506.8,64.8 1506.8,108 1481,86.4 	"/>
	<polygon class="st3" points="1506.8,21.6 1506.8,64.8 1481,43.2 	"/>
	<polygon class="st3" points="1481,86.4 1481,129.6 1455.2,108 	"/>
	<polygon class="st3" points="1481,43.2 1481,86.4 1455.2,64.8 	"/>
	<polygon class="st3" points="1481,0 1481,43.2 1455.2,21.6 	"/>
	<polygon class="st4" points="1455.2,1015.2 1455.2,1058.4 1429.4,1036.8 	"/>
	<polygon class="st4" points="1429.4,993.6 1429.4,1036.8 1403.5,1015.2 	"/>
	<polygon class="st4" points="1429.4,1036.8 1429.4,1080 1403.5,1058.4 	"/>
	<polygon class="st4" points="1429.4,950.4 1429.4,993.6 1403.5,972 	"/>
	<polygon class="st4" points="1455.2,928.8 1455.2,972 1429.4,950.4 	"/>
	<polygon class="st4" points="1455.2,885.6 1455.2,928.8 1429.4,907.2 	"/>
	<polygon class="st4" points="1455.2,842.4 1455.2,885.6 1429.4,864 	"/>
	<polygon class="st4" points="1429.4,820.8 1429.4,864 1403.5,842.4 	"/>
	<polygon class="st4" points="1429.4,777.6 1429.4,820.8 1403.5,799.2 	"/>
	<polygon class="st4" points="1455.2,712.8 1455.2,756 1429.4,734.4 	"/>
	<polygon class="st4" points="1429.4,734.4 1429.4,777.6 1403.5,756 	"/>
	<polygon class="st4" points="1429.4,691.2 1429.4,734.4 1403.5,712.8 	"/>
	<polygon class="st4" points="1455.2,669.6 1455.2,712.8 1429.4,691.2 	"/>
	<polygon class="st4" points="1455.2,626.4 1455.2,669.6 1429.4,648 	"/>
	<polygon class="st4" points="1429.4,648 1429.4,691.2 1403.5,669.6 	"/>
	<polygon class="st4" points="1429.4,604.8 1429.4,648 1403.5,626.4 	"/>
	<polygon class="st4" points="1455.2,540 1455.2,583.2 1429.4,561.6 	"/>
	<polygon class="st4" points="1429.4,561.6 1429.4,604.8 1403.5,583.2 	"/>
	<polygon class="st4" points="1429.4,518.4 1429.4,561.6 1403.5,540 	"/>
	<polygon class="st4" points="1455.2,496.8 1455.2,540 1429.4,518.4 	"/>
	<polygon class="st4" points="1455.2,453.6 1455.2,496.8 1429.4,475.2 	"/>
	<polygon class="st4" points="1429.4,475.2 1429.4,518.4 1403.5,496.8 	"/>
	<polygon class="st4" points="1429.4,432 1429.4,475.2 1403.5,453.6 	"/>
	<polygon class="st4" points="1455.2,410.4 1455.2,453.6 1429.4,432 	"/>
	<polygon class="st4" points="1455.2,367.2 1455.2,410.4 1429.4,388.8 	"/>
	<polygon class="st4" points="1429.4,388.8 1429.4,432 1403.5,410.4 	"/>
	<polygon class="st4" points="1455.2,324 1455.2,367.2 1429.4,345.6 	"/>
	<polygon class="st4" points="1455.2,280.8 1455.2,324 1429.4,302.4 	"/>
	<polygon class="st4" points="1429.4,302.4 1429.4,345.6 1403.5,324 	"/>
	<polygon class="st4" points="1455.2,237.6 1455.2,280.8 1429.4,259.2 	"/>
	<polygon class="st4" points="1455.2,194.4 1455.2,237.6 1429.4,216 	"/>
	<polygon class="st4" points="1429.4,216 1429.4,259.2 1403.5,237.6 	"/>
	<polygon class="st4" points="1455.2,151.2 1455.2,194.4 1429.4,172.8 	"/>
	<polygon class="st4" points="1429.4,129.6 1429.4,172.8 1403.5,151.2 	"/>
	<polygon class="st4" points="1455.2,108 1455.2,151.2 1429.4,129.6 	"/>
	<polygon class="st4" points="1455.2,64.8 1455.2,108 1429.4,86.4 	"/>
	<polygon class="st4" points="1455.2,21.6 1455.2,64.8 1429.4,43.2 	"/>
</g>
</svg>
